<svg height="512" viewBox="0 0 74 74" width="512" xmlns="http://www.w3.org/2000/svg"><g id="color_line" data-name="color line"><path d="m2.888 27.8a.5.5 0 0 1 -.5-.5v-19.111a5.306 5.306 0 0 1 5.3-5.3h19.555a.5.5 0 0 1 0 1h-19.555a4.3 4.3 0 0 0 -4.3 4.3v19.111a.5.5 0 0 1 -.5.5z" fill="#323c6b"/><path d="m70.888 27.8a.5.5 0 0 1 -.5-.5v-19.111a4.306 4.306 0 0 0 -4.3-4.3h-19.556a.5.5 0 0 1 0-1h19.555a5.307 5.307 0 0 1 5.3 5.3v19.111a.5.5 0 0 1 -.499.5z" fill="#323c6b"/><path d="m27.243 71.111h-19.555a5.306 5.306 0 0 1 -5.3-5.3v-19.111a.5.5 0 0 1 1 0v19.111a4.3 4.3 0 0 0 4.3 4.3h19.555a.5.5 0 0 1 0 1z" fill="#323c6b"/><path d="m66.087 71.111h-19.555a.5.5 0 0 1 0-1h19.555a4.306 4.306 0 0 0 4.3-4.3v-19.111a.5.5 0 0 1 1 0v19.111a5.307 5.307 0 0 1 -5.3 5.3z" fill="#323c6b"/><circle cx="36.989" cy="37.069" fill="#fe7058" r="19.997"/><path d="m56.99 37.07a19.947 19.947 0 0 1 -7.23 15.39 20 20 0 0 0 -27.91-28.45 20 20 0 0 1 35.14 13.06z" fill="#ea6453"/><g fill="#323c6b"><path d="m49.33 57.239a.5.5 0 0 1 -.268-.923 22.984 22.984 0 0 0 7.772-8.23.5.5 0 1 1 .873.486 23.994 23.994 0 0 1 -8.11 8.589.5.5 0 0 1 -.267.078z"/><path d="m46.4 58.784a.5.5 0 0 1 -.2-.956l.188-.084c.158-.07.317-.14.473-.216a.5.5 0 0 1 .438.9c-.166.081-.337.156-.507.231l-.184.081a.5.5 0 0 1 -.208.044z"/><path d="m20.595 21.145a.5.5 0 0 1 -.353-.854c.242-.241.484-.481.735-.711a.5.5 0 0 1 .676.737c-.241.221-.474.452-.706.683a.5.5 0 0 1 -.352.145z"/><path d="m24.2 18.2a.5.5 0 0 1 -.276-.917 23.758 23.758 0 0 1 10.305-3.783.5.5 0 1 1 .115.993 22.749 22.749 0 0 0 -9.87 3.62.5.5 0 0 1 -.274.087z"/><path d="m36.989 48.556a.5.5 0 0 1 -.5-.5v-21.973a.5.5 0 1 1 1 0v21.973a.5.5 0 0 1 -.5.5z"/><path d="m47.976 37.569h-21.976a.5.5 0 0 1 0-1h21.976a.5.5 0 0 1 0 1z"/><path d="m36.989 57.567a20.5 20.5 0 1 1 20.5-20.5 20.521 20.521 0 0 1 -20.5 20.5zm0-39.995a19.5 19.5 0 1 0 19.5 19.5 19.519 19.519 0 0 0 -19.5-19.5z"/></g></g></svg>