<?xml version="1.0" encoding="UTF-8"?>
<svg xmlns="http://www.w3.org/2000/svg" xmlns:xlink="http://www.w3.org/1999/xlink" xmlns:svgjs="http://svgjs.com/svgjs" version="1.1" width="512" height="512" x="0" y="0" viewBox="0 0 512 512" style="enable-background:new 0 0 512 512" xml:space="preserve">
  <circle r="256" cx="256" cy="256" fill="#bac8d3" shape="circle"/>
  <g transform="matrix(0.7,0,0,0.7,76.80000457763674,76.80000000000001)">
    <path xmlns="http://www.w3.org/2000/svg" d="m482 274.58c0-85.124 0-189.686 0-274.58h-165c-19.555 0-36.228 12.541-42.42 30-85.123 0-189.686 0-274.58 0v165c0 19.555 12.541 36.228 30 42.42v274.58h165c19.555 0 36.228-12.541 42.42-30h274.58v-165c0-19.555-12.541-36.228-30-42.42zm-30-2.58h-60c0-10.883 0-110.338 0-122h60zm-150-227c0-8.271 6.729-15 15-15h135v90h-120v30h30v30h-15c-24.813 0-45-20.187-45-45zm-30 15v60c-13.68 0-107.258 0-122 0v-60zm-242 0h90v120h30v-30h30v15c0 24.813-20.187 45-45 45h-90c-8.271 0-15-6.729-15-15zm30 180h60v122h-60zm150 227c0 8.271-6.729 15-15 15h-135v-90h120v-30h-30v-30h15c24.813 0 45 20.187 45 45zm-45-165h-15v-63.509c34.192-6.968 60-37.271 60-73.491v-15h63.509c6.968 34.192 37.272 60 73.491 60h15v63.509c-34.192 6.968-60 37.271-60 73.491v15h-63.509c-6.969-34.192-37.272-60-73.491-60zm75 150v-60h122v60zm242 0h-90v-120h-30v30h-30v-15c0-24.813 20.187-45 45-45h90c8.271 0 15 6.729 15 15z" fill="#1c583c" data-original="#000000" style=""/>
  </g>
</svg>
